<svg width="71" height="72" viewBox="0 0 71 72" fill="none" xmlns="http://www.w3.org/2000/svg">
<g opacity="0.3">
<g filter="url(#filter0_d_0:341)">
<path fill-rule="evenodd" clip-rule="evenodd" d="M35 16C46.0457 16 55 24.9543 55 36C55 47.0457 46.0457 56 35 56C23.9543 56 15 47.0457 15 36C15 24.9543 23.9543 16 35 16Z" fill="#EA4C89"/>
</g>
<path fill-rule="evenodd" clip-rule="evenodd" d="M34.9718 23.9475C28.3463 23.9475 22.9749 29.3224 22.9749 35.9528C22.9749 42.5824 28.3463 47.9569 34.9718 47.9569C41.5977 47.9569 46.969 42.5824 46.969 35.9528C46.969 29.3224 41.5977 23.9475 34.9718 23.9475ZM34.9718 26.0353C37.2469 26.0353 39.3389 26.8142 41.0135 28.1089C39.8095 29.6627 38.1468 30.892 36.0285 31.7894C35.0126 29.928 33.852 28.1127 32.5412 26.3503C33.3203 26.1519 34.132 26.0353 34.9718 26.0353ZM30.5007 27.114C31.8323 28.8571 33.0108 30.6536 34.0367 32.4972C31.6071 33.213 28.7068 33.5807 25.3541 33.6038C26.0465 30.7678 27.9557 28.409 30.5007 27.114ZM25.0616 35.952C25.0616 35.8661 25.0727 35.7822 25.0746 35.6967C28.9219 35.6907 32.2409 35.2482 35.0218 34.3732C35.2546 34.8479 35.478 35.3259 35.6912 35.8059C32.3135 36.8628 29.5288 39.0286 27.3569 42.2884C25.9252 40.5696 25.0616 38.36 25.0616 35.952ZM34.9718 45.8691C32.6792 45.8691 30.571 45.0794 28.8897 43.7655C30.8583 40.6753 33.3718 38.6646 36.4857 37.7362C37.4126 40.1574 38.0948 42.6478 38.5284 45.1989C37.4222 45.6258 36.2263 45.8691 34.9718 45.8691ZM40.4726 44.1952C40.0346 41.8418 39.3927 39.5404 38.5535 37.2957C40.4283 37.0308 42.4927 37.0996 44.7506 37.492C44.3138 40.2795 42.7238 42.6866 40.4726 44.1952ZM37.7536 35.32C37.5102 34.7566 37.257 34.1951 36.9872 33.6395C39.2955 32.6389 41.1511 31.2802 42.5341 29.5561C43.8824 31.1512 44.7295 33.1758 44.8547 35.3931C42.28 34.9715 39.9124 34.9482 37.7536 35.32Z" fill="white"/>
</g>
<defs>
<filter id="filter0_d_0:341" x="-3" y="0" width="72" height="72" filterUnits="userSpaceOnUse" color-interpolation-filters="sRGB">
<feFlood flood-opacity="0" result="BackgroundImageFix"/>
<feColorMatrix in="SourceAlpha" type="matrix" values="0 0 0 0 0 0 0 0 0 0 0 0 0 0 0 0 0 0 127 0" result="hardAlpha"/>
<feOffset dx="-2"/>
<feGaussianBlur stdDeviation="8"/>
<feColorMatrix type="matrix" values="0 0 0 0 0 0 0 0 0 0 0 0 0 0 0 0 0 0 0.16 0"/>
<feBlend mode="normal" in2="BackgroundImageFix" result="effect1_dropShadow_0:341"/>
<feBlend mode="normal" in="SourceGraphic" in2="effect1_dropShadow_0:341" result="shape"/>
</filter>
</defs>
</svg>
