<svg width="106" height="23" viewBox="0 0 106 23" fill="none" xmlns="http://www.w3.org/2000/svg">
<path fill-rule="evenodd" clip-rule="evenodd" d="M95 1.49999C100.523 1.49999 105 5.97716 105 11.5C105 17.0229 100.523 21.5 95 21.5C89.4771 21.5 85 17.0229 85 11.5C85 5.97716 89.4771 1.49999 95 1.49999Z" fill="#E8E8EB"/>
<path opacity="0.5" fill-rule="evenodd" clip-rule="evenodd" d="M90.7996 8.6122C91.541 8.6122 92.1421 8.00639 92.1421 7.25956C92.1421 6.51255 91.541 5.90711 90.7996 5.90711C90.0582 5.90711 89.4572 6.51255 89.4572 7.25956C89.4572 8.00639 90.0582 8.6122 90.7996 8.6122ZM89.6755 16.9023H91.9455V9.57212H89.6755V16.9023ZM96.9573 11.4102C96.0488 11.4102 95.5741 12.0237 95.5741 13.0546V16.9023H93.3968V9.57212H95.5741V10.5594C95.5741 10.5594 96.2289 9.3483 97.784 9.3483C99.3392 9.3483 100.452 10.2976 100.452 12.261V16.9023H98.1932V13.0546C98.1932 11.9991 97.7922 11.4102 96.9573 11.4102Z" fill="black"/>
<path fill-rule="evenodd" clip-rule="evenodd" d="M67 1.49999C72.5229 1.49999 77 5.97716 77 11.5C77 17.0229 72.5229 21.5 67 21.5C61.4772 21.5 57 17.0229 57 11.5C57 5.97716 61.4772 1.49999 67 1.49999Z" fill="#E8E8EB"/>
<path opacity="0.5" fill-rule="evenodd" clip-rule="evenodd" d="M69.2318 9.335C68.6979 8.77275 67.9564 8.42348 67.1357 8.42348C66.3151 8.42348 65.5735 8.77275 65.0401 9.335H61.3945V7.78479C61.3945 6.98929 61.7742 6.28629 62.3552 5.85886V8.4003H62.8214V5.59454C62.927 5.55062 63.0369 5.51448 63.1498 5.4873V8.4003H63.6159V5.42588C63.6238 5.4258 63.6316 5.42558 63.6393 5.42535C63.6491 5.42507 63.6588 5.42479 63.6686 5.42479H63.9379V8.4003H64.4041V5.42479H70.6181C71.8738 5.42479 72.8922 6.48146 72.8922 7.78479H72.8919V9.335H69.2318ZM70.2587 6.41151C70.057 6.41151 69.8937 6.58107 69.8937 6.79007V8.09431C69.8937 8.30331 70.057 8.47287 70.2587 8.47287H71.4878C71.6894 8.47287 71.8527 8.30331 71.8527 8.09431V6.79007C71.8527 6.58107 71.6894 6.41151 71.4878 6.41151H70.2587ZM68.0706 9.335C68.2744 9.43132 68.462 9.55782 68.6283 9.70884C69.1022 10.1406 69.4023 10.773 69.4023 11.4771C69.4023 12.7745 68.3856 13.8296 67.1357 13.8296C65.8861 13.8296 64.8694 12.7745 64.8694 11.4771C64.8694 10.773 65.1695 10.1406 65.6435 9.70884C65.8095 9.55782 65.9973 9.43132 66.2009 9.335C66.4862 9.20052 66.8027 9.12476 67.1357 9.12476C67.469 9.12476 67.7855 9.20052 68.0706 9.335ZM65.4681 11.4771C65.4681 12.4374 66.218 13.2157 67.1432 13.2157C68.0683 13.2157 68.8183 12.4374 68.8183 11.4771C68.8183 10.5171 68.0683 9.73888 67.1432 9.73888C66.218 9.73888 65.4681 10.5171 65.4681 11.4771ZM70.6181 17.4205H63.6686C62.4129 17.4205 61.3945 16.3641 61.3945 15.0605V9.70884H64.7382C64.3958 10.2079 64.1939 10.8178 64.1939 11.4771C64.1939 13.1635 65.5111 14.5309 67.1357 14.5309C68.7605 14.5309 70.0779 13.1635 70.0779 11.4771C70.0779 10.8178 69.8757 10.2079 69.5335 9.70884H72.8922V15.0605C72.8922 16.3641 71.8741 17.4205 70.6181 17.4205Z" fill="black"/>
<path fill-rule="evenodd" clip-rule="evenodd" d="M39 1.49999C44.5228 1.49999 49 5.97716 49 11.5C49 17.0229 44.5228 21.5 39 21.5C33.4772 21.5 29 17.0229 29 11.5C29 5.97716 33.4772 1.49999 39 1.49999Z" fill="#E8E8EB"/>
<path opacity="0.5" fill-rule="evenodd" clip-rule="evenodd" d="M32.9669 14.9759C34.057 15.6206 35.3516 15.9969 36.7423 15.9969C41.3153 15.9969 43.8986 12.4335 43.7431 9.23743C44.2241 8.91719 44.6418 8.51698 44.9719 8.06117C44.5301 8.24194 44.0554 8.3642 43.5573 8.41895C44.0657 8.13808 44.4563 7.69267 44.6402 7.16186C44.1643 7.42231 43.6371 7.61152 43.0762 7.71327C42.6271 7.27162 41.9871 6.99573 41.2784 6.99573C39.6889 6.99573 38.5202 8.36448 38.8791 9.78608C36.8321 9.69115 35.0174 8.78649 33.8029 7.41177C33.1577 8.43306 33.4682 9.76934 34.5651 10.4454C34.1612 10.4337 33.7813 10.3312 33.4491 10.1613C33.4227 11.214 34.2401 12.1984 35.4247 12.4182C35.0781 12.505 34.6985 12.525 34.3127 12.457C34.6259 13.3597 35.5356 14.0165 36.6133 14.0348C35.5779 14.7838 34.2737 15.1182 32.9669 14.9759Z" fill="black"/>
<path fill-rule="evenodd" clip-rule="evenodd" d="M11 1.49999C16.5229 1.49999 21 5.97716 21 11.5C21 17.0229 16.5229 21.5 11 21.5C5.47712 21.5 0.999966 17.0229 0.999966 11.5C0.999966 5.97716 5.47712 1.49999 11 1.49999Z" fill="#E8E8EB"/>
<path opacity="0.5" fill-rule="evenodd" clip-rule="evenodd" d="M9.49374 17.4833H11.6746V11.431H13.1962L13.3584 9.405H11.6746C11.6746 9.405 11.6746 8.64854 11.6746 8.25095C11.6746 7.7733 11.7614 7.5842 12.1781 7.5842C12.5135 7.5842 13.3584 7.5842 13.3584 7.5842V5.48153C13.3584 5.48153 12.114 5.48153 11.8483 5.48153C10.2254 5.48153 9.49374 6.27332 9.49374 7.78946C9.49374 9.11002 9.49374 9.405 9.49374 9.405H8.35953V11.4567H9.49374V17.4833Z" fill="black"/>
</svg>
